<?xml version="1.0" encoding="UTF-8" standalone="no"?>
<!-- Generator: Adobe Illustrator 19.0.0, SVG Export Plug-In . SVG Version: 6.00 Build 0)  -->

<svg
   xmlns:dc="http://purl.org/dc/elements/1.1/"
   xmlns:cc="http://creativecommons.org/ns#"
   xmlns:rdf="http://www.w3.org/1999/02/22-rdf-syntax-ns#"
   xmlns:svg="http://www.w3.org/2000/svg"
   xmlns="http://www.w3.org/2000/svg"
   xmlns:sodipodi="http://sodipodi.sourceforge.net/DTD/sodipodi-0.dtd"
   xmlns:inkscape="http://www.inkscape.org/namespaces/inkscape"
   version="1.1"
   id="Capa_1"
   x="0px"
   y="0px"
   viewBox="0 0 368 368"
   style="enable-background:new 0 0 368 368;"
   xml:space="preserve"
   sodipodi:docname="crazy.svg"
   inkscape:version="0.92.4 5da689c313, 2019-01-14"><metadata
   id="metadata51"><rdf:RDF><cc:Work
       rdf:about=""><dc:format>image/svg+xml</dc:format><dc:type
         rdf:resource="http://purl.org/dc/dcmitype/StillImage" /></cc:Work></rdf:RDF></metadata><defs
   id="defs49" /><sodipodi:namedview
   pagecolor="#ffffff"
   bordercolor="#666666"
   borderopacity="1"
   objecttolerance="10"
   gridtolerance="10"
   guidetolerance="10"
   inkscape:pageopacity="0"
   inkscape:pageshadow="2"
   inkscape:window-width="958"
   inkscape:window-height="1055"
   id="namedview47"
   showgrid="false"
   inkscape:zoom="0.64130435"
   inkscape:cx="-176.98305"
   inkscape:cy="184"
   inkscape:window-x="0"
   inkscape:window-y="1103"
   inkscape:window-maximized="0"
   inkscape:current-layer="Capa_1" />
<g
   id="g14"
   style="fill:#ffffff">
	<g
   id="g12"
   style="fill:#ffffff">
		<g
   id="g10"
   style="fill:#ffffff">
			<path
   d="M184,0C82.544,0,0,82.544,0,184s82.544,184,184,184c101.464,0,184-82.544,184-184S285.464,0,184,0z M184,352     c-92.64,0-168-75.36-168-168S91.36,16,184,16c92.632,0,168,75.36,168,168S276.632,352,184,352z"
   id="path2"
   style="fill:#ffffff" />
			<path
   d="M264,128h-33.056l23.712-35.56c2.456-3.672,1.464-8.648-2.216-11.096c-3.688-2.464-8.656-1.464-11.096,2.216l-32,48     c-1.632,2.456-1.792,5.608-0.4,8.208c1.392,2.6,4.104,4.232,7.056,4.232h48c4.424,0,8-3.584,8-8S268.424,128,264,128z"
   id="path4"
   style="fill:#ffffff" />
			<path
   d="M104,144h48c2.952,0,5.664-1.624,7.056-4.224c1.392-2.6,1.24-5.76-0.4-8.208l-32-48c-2.456-3.68-7.416-4.68-11.096-2.216     c-3.672,2.448-4.664,7.416-2.216,11.096L137.048,128H104c-4.416,0-8,3.584-8,8S99.584,144,104,144z"
   id="path6"
   style="fill:#ffffff" />
			<path
   d="M264,176H104c-4.416,0-8,3.584-8,8s3.584,8,8,8h24v56c0,30.88,25.12,56,56,56c30.872,0,56-25.12,56-56v-56h24     c4.424,0,8-3.584,8-8C272,179.584,268.424,176,264,176z M224,248c0,22.056-17.944,40-40,40c-22.056,0-40-17.944-40-40v-56h32v40     c0,4.416,3.584,8,8,8s8-3.584,8-8v-40h32V248z"
   id="path8"
   style="fill:#ffffff" />
		</g>
	</g>
</g>
<g
   id="g16">
</g>
<g
   id="g18">
</g>
<g
   id="g20">
</g>
<g
   id="g22">
</g>
<g
   id="g24">
</g>
<g
   id="g26">
</g>
<g
   id="g28">
</g>
<g
   id="g30">
</g>
<g
   id="g32">
</g>
<g
   id="g34">
</g>
<g
   id="g36">
</g>
<g
   id="g38">
</g>
<g
   id="g40">
</g>
<g
   id="g42">
</g>
<g
   id="g44">
</g>
</svg>