<?xml version="1.0" encoding="UTF-8" standalone="no"?>
<!-- Generator: Adobe Illustrator 19.1.0, SVG Export Plug-In . SVG Version: 6.00 Build 0)  -->

<svg
   xmlns:dc="http://purl.org/dc/elements/1.1/"
   xmlns:cc="http://creativecommons.org/ns#"
   xmlns:rdf="http://www.w3.org/1999/02/22-rdf-syntax-ns#"
   xmlns:svg="http://www.w3.org/2000/svg"
   xmlns="http://www.w3.org/2000/svg"
   xmlns:sodipodi="http://sodipodi.sourceforge.net/DTD/sodipodi-0.dtd"
   xmlns:inkscape="http://www.inkscape.org/namespaces/inkscape"
   version="1.1"
   id="Capa_1"
   x="0px"
   y="0px"
   viewBox="0 0 567.41 567.41"
   style="enable-background:new 0 0 567.41 567.41;"
   xml:space="preserve"
   sodipodi:docname="gibber.svg"
   inkscape:version="0.92.4 5da689c313, 2019-01-14"><metadata
   id="metadata93"><rdf:RDF><cc:Work
       rdf:about=""><dc:format>image/svg+xml</dc:format><dc:type
         rdf:resource="http://purl.org/dc/dcmitype/StillImage" /></cc:Work></rdf:RDF></metadata><defs
   id="defs91" /><sodipodi:namedview
   pagecolor="#ffffff"
   bordercolor="#666666"
   borderopacity="1"
   objecttolerance="10"
   gridtolerance="10"
   guidetolerance="10"
   inkscape:pageopacity="0"
   inkscape:pageshadow="2"
   inkscape:window-width="1918"
   inkscape:window-height="1055"
   id="namedview89"
   showgrid="false"
   inkscape:zoom="0.41592501"
   inkscape:cx="283.70499"
   inkscape:cy="283.70499"
   inkscape:window-x="0"
   inkscape:window-y="1103"
   inkscape:window-maximized="0"
   inkscape:current-layer="Capa_1" />
<g
   id="g56"
   style="fill:#ffffff">
	<path
   d="M160.317,248.921l66.884-27.287c4.804-1.957,8.054-6.492,8.359-11.664c0.314-5.172-2.37-10.065-6.887-12.579l-65.851-36.67   c-6.492-3.627-14.707-1.284-18.317,5.226c-3.628,6.492-1.284,14.698,5.217,18.317l41.33,23.022l-40.908,16.683   c-6.887,2.81-10.191,10.676-7.381,17.563c2.128,5.226,7.165,8.386,12.481,8.386C156.932,249.917,158.656,249.594,160.317,248.921z"
   id="path48"
   style="fill:#ffffff" />
	<path
   d="M335.288,221.14l65.86,33.895c1.966,1.015,4.076,1.499,6.151,1.499c4.885,0,9.589-2.667,11.987-7.309   c3.403-6.617,0.799-14.743-5.809-18.146l-43.494-22.384l43.88-24.431c6.492-3.619,8.835-11.825,5.217-18.317   c-3.627-6.51-11.825-8.853-18.317-5.226l-65.86,36.67c-4.346,2.415-7.003,7.021-6.923,11.987   C328.06,214.343,330.871,218.869,335.288,221.14z"
   id="path50"
   style="fill:#ffffff" />
	<path
   d="M408.421,316.514l-244.952,1.751c-7.399,0.054-13.37,6.081-13.37,13.48c0,59.925,48.953,106.878,111.445,106.878h48.998   c62.493,0,111.446-47.725,111.446-108.629c0-3.591-1.428-7.036-3.987-9.568C415.452,317.893,412.183,316.469,408.421,316.514z    M310.543,411.622h-48.998c-43.341,0-77.092-27.783-83.432-66.536l215.825-1.552C387.429,382.655,353.138,411.622,310.543,411.622z   "
   id="path52"
   style="fill:#ffffff" />
	<path
   d="M283.705,0C127.311,0,0.072,127.266,0.072,283.705S127.311,567.41,283.705,567.41s283.633-127.266,283.633-283.705   S440.099,0,283.705,0z M283.705,540.473c-141.543,0-256.696-115.19-256.696-256.768S142.162,26.945,283.705,26.945   s256.697,115.181,256.697,256.759S425.248,540.473,283.705,540.473z"
   id="path54"
   style="fill:#ffffff" />
</g>
<g
   id="g58">
</g>
<g
   id="g60">
</g>
<g
   id="g62">
</g>
<g
   id="g64">
</g>
<g
   id="g66">
</g>
<g
   id="g68">
</g>
<g
   id="g70">
</g>
<g
   id="g72">
</g>
<g
   id="g74">
</g>
<g
   id="g76">
</g>
<g
   id="g78">
</g>
<g
   id="g80">
</g>
<g
   id="g82">
</g>
<g
   id="g84">
</g>
<g
   id="g86">
</g>
</svg>