<?xml version="1.0" encoding="UTF-8" standalone="no"?>
<!-- Generator: Adobe Illustrator 19.1.0, SVG Export Plug-In . SVG Version: 6.00 Build 0)  -->

<svg
   xmlns:dc="http://purl.org/dc/elements/1.1/"
   xmlns:cc="http://creativecommons.org/ns#"
   xmlns:rdf="http://www.w3.org/1999/02/22-rdf-syntax-ns#"
   xmlns:svg="http://www.w3.org/2000/svg"
   xmlns="http://www.w3.org/2000/svg"
   xmlns:sodipodi="http://sodipodi.sourceforge.net/DTD/sodipodi-0.dtd"
   xmlns:inkscape="http://www.inkscape.org/namespaces/inkscape"
   version="1.1"
   id="Capa_1"
   x="0px"
   y="0px"
   viewBox="0 0 559.464 559.464"
   style="enable-background:new 0 0 559.464 559.464;"
   xml:space="preserve"
   sodipodi:docname="happy.svg"
   inkscape:version="0.92.4 5da689c313, 2019-01-14"><metadata
   id="metadata139"><rdf:RDF><cc:Work
       rdf:about=""><dc:format>image/svg+xml</dc:format><dc:type
         rdf:resource="http://purl.org/dc/dcmitype/StillImage" /></cc:Work></rdf:RDF></metadata><defs
   id="defs137" /><sodipodi:namedview
   pagecolor="#ffffff"
   bordercolor="#666666"
   borderopacity="1"
   objecttolerance="10"
   gridtolerance="10"
   guidetolerance="10"
   inkscape:pageopacity="0"
   inkscape:pageshadow="2"
   inkscape:window-width="1918"
   inkscape:window-height="1055"
   id="namedview135"
   showgrid="false"
   inkscape:zoom="0.42183233"
   inkscape:cx="279.73199"
   inkscape:cy="279.73199"
   inkscape:window-x="0"
   inkscape:window-y="1103"
   inkscape:window-maximized="0"
   inkscape:current-layer="Capa_1" />
<g
   id="g102"
   style="fill:#ffffff">
	<g
   id="g100"
   style="fill:#ffffff">
		<g
   id="group-4svg"
   style="fill:#ffffff">
			<path
   id="path-1_32_"
   d="M308.464,464.943h-54.089c-67.054,0-121.628-50.362-121.628-112.263c0-7.443,6.034-13.477,13.468-13.477     h270.407c7.434,0,13.468,6.034,13.468,13.477C430.101,414.581,375.527,464.943,308.464,464.943z M160.861,366.149     c7.192,40.665,46.385,71.849,93.515,71.849h54.08c47.13,0,86.332-31.184,93.524-71.849H160.861z"
   style="fill:#ffffff" />
			<path
   id="path-2_32_"
   d="M404.107,206.415c0,17.796-14.42,32.207-32.207,32.207c-17.778,0-32.198-14.411-32.198-32.207     c0-17.787,14.42-32.207,32.198-32.207C389.687,174.208,404.107,188.628,404.107,206.415z"
   style="fill:#ffffff" />
			<path
   id="path-3_32_"
   d="M218.936,206.415c0,17.796-14.411,32.207-32.198,32.207s-32.198-14.411-32.198-32.207     c0-17.787,14.411-32.207,32.198-32.207S218.936,188.628,218.936,206.415z"
   style="fill:#ffffff" />
			<path
   id="path-4_32_"
   d="M279.732,559.464c-154.203,0-279.664-125.488-279.664-279.727C0.067,125.488,125.529,0,279.732,0     s279.664,125.488,279.664,279.736C559.405,433.975,433.944,559.464,279.732,559.464z M279.732,26.946     c-139.361,0-252.728,113.394-252.728,252.791c0,139.388,113.367,252.782,252.728,252.782     c139.352,0,252.728-113.394,252.728-252.782C532.469,140.34,419.084,26.946,279.732,26.946z"
   style="fill:#ffffff" />
		</g>
	</g>
</g>
<g
   id="g104">
</g>
<g
   id="g106">
</g>
<g
   id="g108">
</g>
<g
   id="g110">
</g>
<g
   id="g112">
</g>
<g
   id="g114">
</g>
<g
   id="g116">
</g>
<g
   id="g118">
</g>
<g
   id="g120">
</g>
<g
   id="g122">
</g>
<g
   id="g124">
</g>
<g
   id="g126">
</g>
<g
   id="g128">
</g>
<g
   id="g130">
</g>
<g
   id="g132">
</g>
</svg>