<?xml version="1.0" encoding="UTF-8" standalone="no"?>
<!-- Generator: Adobe Illustrator 19.1.0, SVG Export Plug-In . SVG Version: 6.00 Build 0)  -->

<svg
   xmlns:dc="http://purl.org/dc/elements/1.1/"
   xmlns:cc="http://creativecommons.org/ns#"
   xmlns:rdf="http://www.w3.org/1999/02/22-rdf-syntax-ns#"
   xmlns:svg="http://www.w3.org/2000/svg"
   xmlns="http://www.w3.org/2000/svg"
   xmlns:sodipodi="http://sodipodi.sourceforge.net/DTD/sodipodi-0.dtd"
   xmlns:inkscape="http://www.inkscape.org/namespaces/inkscape"
   version="1.1"
   id="Capa_1"
   x="0px"
   y="0px"
   viewBox="0 0 559.463 559.463"
   style="enable-background:new 0 0 559.463 559.463;"
   xml:space="preserve"
   sodipodi:docname="wink.svg"
   inkscape:version="0.92.4 5da689c313, 2019-01-14"><metadata
   id="metadata47"><rdf:RDF><cc:Work
       rdf:about=""><dc:format>image/svg+xml</dc:format><dc:type
         rdf:resource="http://purl.org/dc/dcmitype/StillImage" /></cc:Work></rdf:RDF></metadata><defs
   id="defs45" /><sodipodi:namedview
   pagecolor="#ffffff"
   bordercolor="#666666"
   borderopacity="1"
   objecttolerance="10"
   gridtolerance="10"
   guidetolerance="10"
   inkscape:pageopacity="0"
   inkscape:pageshadow="2"
   inkscape:window-width="1918"
   inkscape:window-height="1055"
   id="namedview43"
   showgrid="false"
   inkscape:zoom="0.42183307"
   inkscape:cx="-269.06378"
   inkscape:cy="279.73151"
   inkscape:window-x="0"
   inkscape:window-y="1103"
   inkscape:window-maximized="0"
   inkscape:current-layer="Capa_1" />
<g
   id="g10"
   style="fill:#ffffff">
	<path
   d="M371.558,263.727c17.733,0,32.117-14.375,32.117-32.117c0-17.742-14.384-32.126-32.117-32.126   c-17.742,0-32.108,14.384-32.108,32.126C339.45,249.352,353.816,263.727,371.558,263.727z"
   id="path2"
   style="fill:#ffffff" />
	<path
   d="M393.422,332.245c-7.434,0-13.468,5.825-13.468,13.269c0,41.671-33.267,74.109-75.737,74.109H259.61   c-41.761,0-75.746-33.453-75.746-74.828c0-7.443-6.025-13.373-13.459-13.373c-7.443,0-13.468,5.909-13.468,13.352   c0,56.226,46.053,101.848,102.673,101.848h44.607c57.563,0,102.673-44.295,102.673-101.078   C406.89,338.101,400.865,332.245,393.422,332.245z"
   id="path4"
   style="fill:#ffffff" />
	<path
   d="M218.954,227.127c0-7.443-6.034-13.504-13.468-13.504h-53.873c-7.434,0-13.468,6.061-13.468,13.504   c0,7.434,6.034,13.496,13.468,13.496h53.873C212.929,240.622,218.954,234.561,218.954,227.127z"
   id="path6"
   style="fill:#ffffff" />
	<path
   d="M279.723,0C125.529,0,0.076,125.488,0.067,279.736c0,154.239,125.453,279.727,279.655,279.727   c154.212,0,279.673-125.488,279.673-279.727C559.396,125.488,433.935,0,279.723,0z M279.723,532.527   c-139.352,0-252.719-113.403-252.719-252.791S140.371,26.945,279.723,26.945c139.361,0,252.737,113.403,252.737,252.791   S419.084,532.527,279.723,532.527z"
   id="path8"
   style="fill:#ffffff" />
</g>
<g
   id="g12">
</g>
<g
   id="g14">
</g>
<g
   id="g16">
</g>
<g
   id="g18">
</g>
<g
   id="g20">
</g>
<g
   id="g22">
</g>
<g
   id="g24">
</g>
<g
   id="g26">
</g>
<g
   id="g28">
</g>
<g
   id="g30">
</g>
<g
   id="g32">
</g>
<g
   id="g34">
</g>
<g
   id="g36">
</g>
<g
   id="g38">
</g>
<g
   id="g40">
</g>
</svg>